<svg class="icon-settings" viewBox="0 0 512 512">
  <path
    d="m486 203l-49-10c-2-7-5-14-8-21l27-41c9-13 7-30-4-41l-30-30c-7-7-15-10-23-10c-6 0-12 2-18 6l-41 27c-7-3-14-6-21-8l-10-49c-3-15-16-26-31-26l-44 0c-15 0-28 11-31 26l-10 49c-7 2-14 5-21 8l-41-27c-6-4-12-6-18-6c-8 0-16 3-23 10l-30 30c-11 11-13 28-4 41l27 41c-3 7-6 14-8 21l-49 10c-15 3-26 16-26 31l0 44c0 15 11 28 26 31l49 10c2 7 5 14 8 21l-27 41c-9 13-7 30 4 41l30 30c7 7 15 10 23 10c6 0 12-2 18-6l41-27c7 3 14 6 21 8l10 49c3 15 16 26 31 26l44 0c15 0 28-11 31-26l10-49c7-2 14-5 21-8l41 27c6 4 12 6 18 6c8 0 16-3 23-10l30-30c11-11 13-28 4-41l-27-41c3-7 6-14 8-21l49-10c15-3 26-16 26-31l0-44c0-15-11-28-26-31z m-55 85c-11 2-20 10-24 20c-2 6-4 12-7 18c-5 10-4 22 2 31l28 42l-31 31l-42-28c-5-4-11-5-17-5c-5 0-10 1-14 3c-6 3-12 5-18 7c-10 4-18 13-20 24l-10 49l-44 0l-10-49c-2-11-10-20-20-24c-6-2-12-4-18-7c-4-2-9-3-14-3c-6 0-12 1-17 5l-42 28l-31-31l28-42c6-9 7-21 2-31c-3-6-5-12-7-18c-4-10-13-18-24-20l-49-10l0-44l49-10c11-2 20-10 24-20c2-6 4-12 7-18c5-10 4-22-2-31l-28-42l31-31l42 28c5 4 11 5 17 5c5 0 10-1 14-3c6-2 12-5 18-7c10-4 18-13 20-24l10-49l44 0l10 49c2 11 10 20 20 24c6 2 12 4 18 7c4 2 9 3 14 3c6 0 12-1 17-5l42-28l31 31l-28 42c-6 9-7 21-2 31c2 6 5 12 7 18c4 10 13 18 24 20l49 10l0 44z m-175-144c-62 0-112 50-112 112c0 62 50 112 112 112c62 0 112-50 112-112c0-62-50-112-112-112z m0 210c-54 0-98-44-98-98c0-54 44-98 98-98c54 0 98 44 98 98c0 54-44 98-98 98z m0-162c-35 0-64 29-64 64c0 35 29 64 64 64c35 0 64-29 64-64c0-35-29-64-64-64z m0 112c-26 0-48-21-48-48c0-26 22-48 48-48c26 0 48 22 48 48c0 27-22 48-48 48z" />
</svg>
